/* XPM */
static char *f65c4565aff14290ae37be98cbf7f9d38kwQe4mzPNHs47NS[] = {
/* columns rows colors chars-per-pixel */
"32 32 6 1 ",
"  c #222222",
". c #483B3A",
"X c #243F4C",
"o c #775C55",
"O c #417089",
"+ c #5698CC",
/* pixels */
"      ..        ......  ..      ",
"      ..        ......  ..      ",
"  ............................oo",
"  ............................oo",
"......OO++++++++++++++++OO....oo",
"......OO++++++++++++++++OO....oo",
"......++++++++++++++++++++....oo",
"......++++++++++++++++++++....oo",
"  ....++++++++++++++++++++....oo",
"  ....++++++++++++++++++++....oo",
"....  ++++++++++++++++++++  ..oo",
"....  ++++++++++++++++++++  ..oo",
"  ..  ++++++++++++++++++++  ....",
"  ..  ++++++++++++++++++++  ....",
"  ..  ++++++++++++++++++++  ..oo",
"  ..  ++++++++++++++++++++  ..oo",
"  ..  ++++++++++++++++++++  ....",
"  ..  ++++++++++++++++++++  ....",
"....  ++++++++++++++++++++  ..oo",
"....  ++++++++++++++++++++  ..oo",
"....  OO++++++++++++++++OO  ..oo",
"....  OO++++++++++++++++OO  ..oo",
"  ..  XXXXXXXXXXXXXXXXXXXX  ....",
"  ..  XXXXXXXXXXXXXXXXXXXX  ....",
"  ..  XXXXXXXXXXXXXXXXXXXX  ....",
"  ..  XXXXXXXXXXXXXXXXXXXX  ....",
"  ....                    ....oo",
"  ....                    ....oo",
"  ............................oo",
"  ............................oo",
"oooooo....oo..oooooooo..oooooooo",
"oooooo....oo..oooooooo..oooooooo"
};
