/* XPM */
static char *_c98fb5f3e4d48bffe29fb3504070085nYVEflvBLMw349E0[] = {
/* columns rows colors chars-per-pixel */
"32 32 5 1 ",
"  c #222222",
". c #483B3A",
"X c #775C55",
"o c #417089",
"O c #5698CC",
/* pixels */
"      ..        ......  ..      ",
"      ..        ......  ..      ",
"  ............................XX",
"  ............................XX",
"..............................XX",
"..............................XX",
"..............................XX",
"..............................XX",
"  ....ooOOOOOOOOOOOOOOOOoo....XX",
"  ....ooOOOOOOOOOOOOOOOOoo....XX",
"....  OOOOOOOOOOOOOOOOOOOO  ..XX",
"....  OOOOOOOOOOOOOOOOOOOO  ..XX",
"  ..  OOOOOOOOOOOOOOOOOOOO  ....",
"  ..  OOOOOOOOOOOOOOOOOOOO  ....",
"  ..  OOOOOOOOOOOOOOOOOOOO  ..XX",
"  ..  OOOOOOOOOOOOOOOOOOOO  ..XX",
"  ..  OOOOOOOOOOOOOOOOOOOO  ....",
"  ..  OOOOOOOOOOOOOOOOOOOO  ....",
"....  OOOOOOOOOOOOOOOOOOOO  ..XX",
"....  OOOOOOOOOOOOOOOOOOOO  ..XX",
"....  OOOOOOOOOOOOOOOOOOOO  ..XX",
"....  OOOOOOOOOOOOOOOOOOOO  ..XX",
"  ..  OOOOOOOOOOOOOOOOOOOO  ....",
"  ..  OOOOOOOOOOOOOOOOOOOO  ....",
"  ..  ooOOOOOOOOOOOOOOOOoo  ....",
"  ..  ooOOOOOOOOOOOOOOOOoo  ....",
"  ....                    ....XX",
"  ....                    ....XX",
"  ............................XX",
"  ............................XX",
"XXXXXX....XX..XXXXXXXX..XXXXXXXX",
"XXXXXX....XX..XXXXXXXX..XXXXXXXX"
};
