/* XPM */
static char *result[] = {
/* columns rows colors chars-per-pixel */
"32 32 9 1 ",
"  c black",
". c #222222",
"X c #62232F",
"o c #314152",
"O c #8F4029",
"+ c #417089",
"@ c #49A790",
"# c #D3BFA9",
"$ c None",
/* pixels */
"$$$$$$$$$$$$$$$$$$$$$$$$$$$$$$$$",
"$$$$$$$$$$$$$$$$$$$$$$$$$$$$$$$$",
"$$$$$$$$$$$$$$$$$$$$$$$$$$$$$$$$",
"$$$$$$$$$$$$$$$$$$$$$$$$$$$$$$$$",
"$$$$$$$$$$$$$$$$$$$$$$$$$$$$$$$$",
"$$$$$$$$$$$$$$$$$$$$$$$$$$$$$$$$",
"$$$$$$$$$$$$$$$$$$$$$$$$$$$$$$$$",
"$$$$$$$$$$$$$$$$$$$$$$$$$$$$$$$$",
"$$$$$$$$$.............$$$$$$$$$$",
"$$$$$$$$$.@@@@@@@@@@@@.$$$$$$$$$",
"$$$$$$$$$.@@@@@@@@@@@@.$$$$$$$$$",
"$$$$$$$$$.@@@  @@ @@@ .$$$$$$$$$",
"$$$$$$$$$.@@@  @@+@@@+.$$$$$$$$$",
"$$$$$$$$$.@@@++@@@@@@@.$$$$$$$$$",
"$$$$$$$$$.@@@@@@@@@@@.$$$$$$$$$$",
"$$$$$$$$$.@@@@@+ooo...$$$$$$$$$$",
"$$$$$$$$$.@@@@@###.$$$$$$$$$$$$$",
"$$$$$$$$$.@@@@####.$$$$$$$$$$$$$",
"$$$$$$$$$.@@@@####.$$$$$$$$$$$$$",
"$$$$$$$$.@@XXXXXXXX.$$$$$$$$$$$$",
"$$$$$$$$$$.OOOOOOOO.$$$$$$$$$$$$",
"$$$$$$$$$$.@@.OO.@@.$$$$$$$$$$$$",
"$$$$$$$$$$.@.$...@.$$$$$$$$$$$$$",
"$$$$$$$$$$.$$$$$$.$$$$$$$$$$$$$$"
"$$$$$$$$$$$$$$$$$$$$$$$$$$$$$$$$",
"$$$$$$$$$$$$$$$$$$$$$$$$$$$$$$$$",
"$$$$$$$$$$$$$$$$$$$$$$$$$$$$$$$$",
"$$$$$$$$$$$$$$$$$$$$$$$$$$$$$$$$",
"$$$$$$$$$$$$$$$$$$$$$$$$$$$$$$$$",
"$$$$$$$$$$$$$$$$$$$$$$$$$$$$$$$$",
"$$$$$$$$$$$$$$$$$$$$$$$$$$$$$$$$",
"$$$$$$$$$$$$$$$$$$$$$$$$$$$$$$$$"
};
