/* XPM */
static char *d6f653423e2d4f76a7b286850cd31eb0OpmjAoF9cMA4iqNg[] = {
/* columns rows colors chars-per-pixel */
"32 32 5 1 ",
"  c #222222",
". c #483B3A",
"X c #775C55",
"o c #3C9F9C",
"O c #FDF7ED",
/* pixels */
"      ..        ......  ..      ",
"      ..        ......  ..      ",
"  ............................XX",
"  ............................XX",
"........OO............OO......XX",
"........OO............OO......XX",
"........OO............OO......XX",
"........OO............OO......XX",
"  ..  ooooOO  ....  ooooOO  ..XX",
"  ..  ooooOO  ....  ooooOO  ..XX",
"....XXooooOOXX....XXooooOOXX..XX",
"....XXooooOOXX....XXooooOOXX..XX",
"  ....XXXXXX........XXXXXX......",
"  ....XXXXXX........XXXXXX......",
"  ............................XX",
"  ............................XX",
"  ......OO............OO........",
"  ......OO............OO........",
"........OO............OO......XX",
"........OO............OO......XX",
"....  ooooOO  ....  ooooOO  ..XX",
"....  ooooOO  ....  ooooOO  ..XX",
"  ..XXooooOOXX....XXooooOOXX....",
"  ..XXooooOOXX....XXooooOOXX....",
"  ....XXXXXX........XXXXXX......",
"  ....XXXXXX........XXXXXX......",
"  ............................XX",
"  ............................XX",
"  ............................XX",
"  ............................XX",
"XXXXXX....XX..XXXXXXXX..XXXXXXXX",
"XXXXXX....XX..XXXXXXXX..XXXXXXXX"
};
