/* XPM */
static char *dacf49da9c7c4bd9a5ed80bfd2886897k6b0dkVPkfGODEOm[] = {
/* columns rows colors chars-per-pixel */
"32 32 5 1 ",
"  c #222222",
". c #483B3A",
"X c #775C55",
"o c #3C9F9C",
"O c #FDF7ED",
/* pixels */
"      ..        ......  ..      ",
"      ..        ......  ..      ",
"  ............................XX",
"  ............................XX",
"..............................XX",
"..............................XX",
"......  OO  ........  OO  ....XX",
"......  OO  ........  OO  ....XX",
"  ..    OO    ....    OO    ..XX",
"  ..    OO    ....    OO    ..XX",
"....XXooooOOXX....XXooooOOXX..XX",
"....XXooooOOXX....XXooooOOXX..XX",
"  ....XXXXXX........XXXXXX......",
"  ....XXXXXX........XXXXXX......",
"  ............................XX",
"  ............................XX",
"  ..............................",
"  ..............................",
"......  OO  ........  OO  ....XX",
"......  OO  ........  OO  ....XX",
"....    OO    ....    OO    ..XX",
"....    OO    ....    OO    ..XX",
"  ..XXooooooXX....XXooooOOXX....",
"  ..XXooooooXX....XXooooOOXX....",
"  ....XXXXXX........XXXXXX......",
"  ....XXXXXX........XXXXXX......",
"  ............................XX",
"  ............................XX",
"  ............................XX",
"  ............................XX",
"XXXXXX....XX..XXXXXXXX..XXXXXXXX",
"XXXXXX....XX..XXXXXXXX..XXXXXXXX"
};
