/* XPM */
static char *_1c93fa9f8a54d35956dd6ce5f6233fag2objzUXg208xL7x[] = {
/* columns rows colors chars-per-pixel */
"32 32 4 1 ",
"  c #222222",
". c #483B3A",
"X c #775C55",
"o c #FDF7ED",
/* pixels */
"      ..        ......  ..      ",
"      ..        ......  ..      ",
"  ............................XX",
"  ............................XX",
"..............................XX",
"..............................XX",
"......      ........      ....XX",
"......      ........      ....XX",
"  ..          ....          ..XX",
"  ..          ....          ..XX",
"....XX  oo  XX....XX  oo  XX..XX",
"....XX  oo  XX....XX  oo  XX..XX",
"  ....XXXXXX........XXXXXX......",
"  ....XXXXXX........XXXXXX......",
"  ............................XX",
"  ............................XX",
"  ..............................",
"  ..............................",
"......      ........      ....XX",
"......      ........      ....XX",
"....          ....          ..XX",
"....          ....          ..XX",
"  ..XX  oo  XX....XX  oo  XX....",
"  ..XX  oo  XX....XX  oo  XX....",
"  ....XXXXXX........XXXXXX......",
"  ....XXXXXX........XXXXXX......",
"  ............................XX",
"  ............................XX",
"  ............................XX",
"  ............................XX",
"XXXXXX....XX..XXXXXXXX..XXXXXXXX",
"XXXXXX....XX..XXXXXXXX..XXXXXXXX"
};
