/* XPM */
static char *_d30847e749c4a7d8a20fff5777a0cd3Y1lDpSBuoESusJZk[] = {
/* columns rows colors chars-per-pixel */
"48 48 3 1 ",
"  c None",
". c #020012",
"X c #F52331",
/* pixels */
"                                                ",
"                                                ",
"                                                ",
"                                                ",
"                                                ",
"                                                ",
"                                                ",
"                                                ",
"            XXXXXXXX            XXXX            ",
"            XXXXXXXX            XXXX            ",
"            XXXXXXXX            XXXX            ",
"            XXXXXXXX            XXXX            ",
"                XXXXXXXX        XXXXXXXX        ",
"                XXXXXXXX        XXXXXXXX        ",
"                XXXXXXXX        XXXXXXXX        ",
"                XXXXXXXX        XXXXXXXX        ",
"                XXXXXXXXXXXXXXXXXXXXXXXX        ",
"                XXXXXXXXXXXXXXXXXXXXXXXX        ",
"                XXXXXXXXXXXXXXXXXXXXXXXX        ",
"                XXXXXXXXXXXXXXXXXXXXXXXX        ",
"                XXXXXXXX....XXXX....XXXX        ",
"                XXXXXXXX....XXXX....XXXX        ",
"                XXXXXXXX....XXXX....XXXX        ",
"                XXXXXXXX....XXXX....XXXX        ",
"                XXXXXXXX....XXXX....XXXX        ",
"                XXXXXXXX....XXXX....XXXX        ",
"                XXXXXXXX....XXXX....XXXX        ",
"                XXXXXXXX....XXXX....XXXX        ",
"                XXXXXXXXXXXXXXXXXXXX            ",
"                XXXXXXXXXXXXXXXXXXXX            ",
"                XXXXXXXXXXXXXXXXXXXX            ",
"                XXXXXXXXXXXXXXXXXXXX            ",
"                XXXXXXXX    XXXXXXXX            ",
"                XXXXXXXX    XXXXXXXX            ",
"                XXXXXXXX    XXXXXXXX            ",
"                XXXXXXXX    XXXXXXXX            ",
"                XXXX        XXXX                ",
"                XXXX        XXXX                ",
"                XXXX        XXXX                ",
"                XXXX        XXXX                ",
"                                                ",
"                                                ",
"                                                ",
"                                                ",
"                                                ",
"                                                ",
"                                                ",
"                                                "
};
