/* XPM */
static char *_e4e996f38f24da6aafc1dfbd10543cd6lg6PhJbbah4iEJT[] = {
/* columns rows colors chars-per-pixel */
"32 32 51 1 ",
"  c #222222",
". c #242423",
"X c #272625",
"o c #292726",
"O c #2A2927",
"+ c #2B2828",
"@ c #2E2A2A",
"# c #2D2C2A",
"$ c #322D2C",
"% c #332D2C",
"& c #342E2D",
"* c #37302F",
"= c #393230",
"- c #3B3332",
"; c #3B3632",
": c #3D3433",
"> c #3E3534",
", c #3E3834",
"< c #413635",
"1 c #443837",
"2 c #463938",
"3 c #473B39",
"4 c #433F3B",
"5 c #443D38",
"6 c #483B3A",
"7 c #4D3F3C",
"8 c #47403B",
"9 c #4E403E",
"0 c #52433F",
"q c #4C4641",
"w c #4E4944",
"e c #544341",
"r c #544440",
"t c #594743",
"y c #5B4945",
"u c #624D48",
"i c #644F4A",
"p c #69524D",
"a c #6B544E",
"s c #6E5E53",
"d c #766358",
"f c #887264",
"g c #857A6E",
"h c #907C6D",
"j c #987E6E",
"k c #9F8E7E",
"l c #A48876",
"z c #AA8D7A",
"x c #A79887",
"c c #B49986",
"v c #C9B29D",
/* pixels */
"                                ",
"5555555;OO;4555555555:$o O;55555",
"fffffffs;;sffffffffffd0*O;sfffff",
"zzzzzzzf44fzzzzzzzzzzjd9$5fzzzzz",
"zzzzzzzf,8fzzzzzzzzzzljd,5fzzzzz",
"ccccccch88hcccccccccccch88hccccc",
"vvvvvvvkwqlvvvvvvvvvvvvkqqkvvvvv",
"xxxxxxxg48gxxxxxxxxxxxxg88gxxxxx",
"wwwwwww4##4wwwwwwwwwwww4OO8wwwww",
"   X$**$XX$$XX$&**$-*$Xo$-*&****",
"   $0uu0$$00$$0uuuuuue$$quuuuuuu",
" .o-yaat&&ty;-ruaaapat&$yaaaaaaa",
" o*19ee3@@391:-:7eeee6@@3eeeeeee",
" +>6666>++>66>++:6666>o@>3<<3333",
" +>6666>++>66>++>6666>+o><$&<333",
" o*>>>>*oo*>>*oo*>::>*oo**oo*>>>",
" Xoo+o+o. o@oo..o@ooooXXXoX oo++",
" o$$oo$**-&&&$oo$**&Xo$&-&&$o   ",
" $e0$$0uuuuuie$$eyie$$euuuu0$   ",
" $tt:*eiaaaaat&&taat&$taaaat&.o+",
" @672:&:7eeee6@@6ee3@@6eeee6@o*>",
" o>66<&&<3666>o+>66<$$<6666>++>6",
" o>663<<36666>++>363<<66666>++>6",
" o->>>>::>>>>*oo*>>>:>:>>>>*oo*>",
" .o++++++++ooo..oo@o+oo@++oo..o+",
" X$&*$Xo$$oo$**&&-&$oo$$&$XX$***",
" $euue$$00$$euuuuuue$$eui0$$euuu",
" &taat&$tt&&taaaaaat&$taay:-yaaa",
" @6ee3@@66@@6eeeeee6@@6ee7<37eee",
" o>63>@o:<$$<666<<3>++>6<<366666",
" @>66>o+:3<<366<&$<>++><$$<66666",
" o>66>++:666666>oo>>++>>++>66666"
};
