/* XPM */
static char *c209abc807e04ff4f7cb88acc68a3fa0moYuxGVUCBBOKCyg[] = {
/* columns rows colors chars-per-pixel */
"16 16 4 1 ",
"  c None",
". c #222222",
"X c #AA8D7A",
"o c #D3BFA9",
/* pixels */
".XXX.           ",
".ooo.           ",
".....           ",
".XXX.           ",
".XXX.           ",
".XXX.           ",
".XXX.           ",
".XXX.           ",
".ooo.           ",
".....           ",
".XXX.           ",
".XXX.           ",
".XXX.           ",
".XXX.           ",
".XXX.           ",
".XXX.           "
};
