/* XPM */
static char *af88f263a6374448a884133939bed291Mw05qN59j2rpWFGi[] = {
/* columns rows colors chars-per-pixel */
"32 32 5 1 ",
"  c #222222",
". c #483B3A",
"X c #775C55",
"o c #AA8D7A",
"O c #D3BFA9",
/* pixels */
"  oooooo  oooooooo..  oooooooooo",
"  oooooo  oooooooo..  oooooooooo",
"  oooooo  oooooooooo  oooooooooo",
"  oooooo  oooooooooo  oooooooooo",
"  oooooo  OOOOOOOOOO  OOOOOOOOOO",
"  oooooo  OOOOOOOOOO  OOOOOOOOOO",
"                                ",
"                                ",
"  oooooo  XXXXXXXX  XX  XXXX  XX",
"  oooooo  XXXXXXXX  XX  XXXX  XX",
"  oooooo  ......  ....  ........",
"  oooooo  ......  ....  ........",
"  oooooo  ......  ....  ........",
"  oooooo  ......  ....  ........",
"  oooooo                        ",
"  oooooo                        ",
"  oooooo    XXXX  XXXXXXXX  XXXX",
"  oooooo    XXXX  XXXXXXXX  XXXX",
"  OOOOOO    ....  ........  ....",
"  OOOOOO    ....  ........  ....",
"          ......  ......  ......",
"          ......  ......  ......",
"  oooooo                        ",
"  oooooo                        ",
"  oooooo    XXXXXXXX  XXXX  XXXX",
"  oooooo    XXXXXXXX  XXXX  XXXX",
"  oooooo    ........  ....    ..",
"  oooooo    ........  ....    ..",
"  oooooo    ..  ..........  ....",
"  oooooo    ..  ..........  ....",
"  oooooo                        ",
"  oooooo                        "
};
