/* XPM */
static char *_1c676d10c2249c3891a8400fa74cc7dDygUgdy3BQzF6QpS[] = {
/* columns rows colors chars-per-pixel */
"32 32 5 1 ",
"  c #222222",
". c #483B3A",
"X c #775C55",
"o c #AA8D7A",
"O c #D3BFA9",
/* pixels */
"oooooooooo  ..oooooooo  oooooo  ",
"oooooooooo  ..oooooooo  oooooo  ",
"oooooooooo  oooooooooo  oooooo  ",
"oooooooooo  oooooooooo  oooooo  ",
"OOOOOOOOOO  OOOOOOOOOO  OOOOOO  ",
"OOOOOOOOOO  OOOOOOOOOO  OOOOOO  ",
"                                ",
"                                ",
"XX  XXXX  XX  XXXXXXXX  oooooo  ",
"XX  XXXX  XX  XXXXXXXX  oooooo  ",
"........  ....  ......  oooooo  ",
"........  ....  ......  oooooo  ",
"........  ....  ......  oooooo  ",
"........  ....  ......  oooooo  ",
"                        oooooo  ",
"                        oooooo  ",
"XXXX  XXXXXXXX  XXXX    oooooo  ",
"XXXX  XXXXXXXX  XXXX    oooooo  ",
"....  ........  ....    OOOOOO  ",
"....  ........  ....    OOOOOO  ",
"......  ......  ......          ",
"......  ......  ......          ",
"                        oooooo  ",
"                        oooooo  ",
"XXXX  XXXX  XXXXXXXX    oooooo  ",
"XXXX  XXXX  XXXXXXXX    oooooo  ",
"..    ....  ........    oooooo  ",
"..    ....  ........    oooooo  ",
"....  ..........  ..    oooooo  ",
"....  ..........  ..    oooooo  ",
"                        oooooo  ",
"                        oooooo  "
};
